G04 DipTrace 3.3.1.1*
G04 Bottom.gbr*
%MOIN*%
G04 #@! TF.FileFunction,Copper,L2,Bot*
G04 #@! TF.Part,Single*
G04 #@! TA.AperFunction,Conductor*
%ADD13C,0.012992*%
%ADD14C,0.07874*%
%ADD15C,0.019685*%
G04 #@! TA.AperFunction,ComponentPad*
%ADD16C,0.094488*%
%ADD18C,0.07*%
%ADD21C,0.076772*%
%ADD22C,0.062992*%
%ADD23R,0.062992X0.062992*%
%ADD24R,0.066929X0.066929*%
%ADD25C,0.066929*%
%ADD26C,0.07*%
%ADD27R,0.051496X0.051496*%
%ADD28C,0.06*%
%ADD29C,0.06*%
%ADD30C,0.074*%
%ADD32O,0.065X0.12*%
%ADD33R,0.059055X0.059055*%
%ADD34C,0.059055*%
%ADD35C,0.048*%
%FSLAX26Y26*%
G04*
G70*
G90*
G75*
G01*
G04 Bottom*
%LPD*%
X2301240Y1432940D2*
D13*
X2400000Y1531699D1*
Y1750000D1*
X2569060Y1919060D1*
X2807860D1*
X1650000Y1850000D2*
X1750000Y1750000D1*
Y1650000D1*
X1700000D1*
X1650000Y1600000D1*
Y1550000D1*
Y1301969D1*
X1640551Y1292520D1*
X1204724D1*
X1650000Y1550000D2*
X1500000D1*
X1640551Y1292520D2*
X1650000Y1283071D1*
Y1209449D1*
Y750000D1*
X1750000Y1200000D2*
X1659449D1*
X1650000Y1209449D1*
X750000Y1050000D2*
X800000D1*
X1042520Y1292520D1*
X1204724D1*
X2500000Y1550000D2*
X2600000Y1450000D1*
Y633087D1*
X2516913Y550000D1*
X1850000D1*
X1806488Y593512D1*
Y1243512D1*
X1750000Y1300000D1*
X2500000Y1740000D2*
Y1650000D1*
X2433311Y1583311D1*
Y1168807D1*
X2550000Y1052118D1*
Y661039D1*
X2488961Y600000D1*
X1875984D1*
X1850000Y625984D1*
Y1450000D1*
X1750000Y1550000D1*
X1500000Y1100000D2*
Y1050000D1*
X1550000Y1000000D1*
Y939283D1*
X1450000Y839283D1*
Y750000D1*
X1250000Y950000D2*
X1150000Y1050000D1*
X900000D1*
X800000Y950000D1*
X750000D1*
X2001240Y1532940D2*
X2005219Y1528961D1*
X2021039D1*
X2217060Y1332940D1*
X2301240D1*
X2352224Y1281955D1*
Y797776D1*
X2450000Y700000D1*
X598425Y1292520D2*
Y1101575D1*
X750000Y950000D1*
X2450000Y1000000D2*
X2506488Y943512D1*
Y669496D1*
X2480504Y643512D1*
X2390668D1*
X2301240Y732940D1*
X950000Y950000D2*
Y900000D1*
X800000Y750000D1*
X750000D1*
X996850Y3850000D2*
D14*
X1146850Y4000000D1*
X1650000D1*
X1725000Y3925000D1*
X1900000Y3750000D1*
Y3150000D1*
X1850000Y3100000D1*
Y3000000D1*
X2050000Y3900000D2*
D15*
X1725000D1*
Y3925000D1*
X2050000Y3900000D2*
X2100000D1*
X2200000Y3800000D1*
X1000000Y2450000D2*
Y2500000D1*
X900000Y2600000D1*
X550000D1*
X450000Y2700000D1*
Y3200000D1*
X1000000Y3750000D1*
Y3850000D1*
X996850D1*
X2700000Y3800000D2*
Y3700000D1*
X2600000Y3600000D1*
X1300000Y2950000D2*
D13*
Y2027524D1*
X1327524Y2000000D1*
X1650000D1*
X1900000Y1750000D1*
Y719752D1*
X1969752Y650000D1*
X2178791D1*
X2224272Y695480D1*
Y955971D1*
X2301240Y1032940D1*
X1327524Y2000000D2*
Y1572476D1*
X1500000Y1400000D1*
X2789801Y1201699D2*
X2886799Y1298698D1*
Y2163201D1*
X2500000Y2550000D1*
X1950000D1*
X1450000Y3050000D1*
X1100000D1*
X950000Y2900000D1*
X750000D1*
X650000Y2800000D1*
Y2750000D1*
X1546850Y3850000D2*
D14*
Y3453150D1*
X1700000Y3300000D1*
Y3050000D1*
X1750000Y3000000D1*
D16*
X800000Y3850000D3*
X996850D3*
X1350000D3*
X1546850D3*
D18*
X1650000Y1850000D3*
Y2105906D3*
D21*
X2550000Y2900000D3*
Y2112598D3*
D22*
X2700000Y950000D3*
D23*
Y850000D3*
D22*
X1500000Y1650000D3*
D23*
Y1550000D3*
D22*
X1750000Y1300000D3*
D23*
Y1200000D3*
D22*
Y1550000D3*
D23*
Y1650000D3*
D24*
X750000Y1050000D3*
D25*
Y950000D3*
Y850000D3*
Y750000D3*
D24*
X2807860Y1919060D3*
D25*
Y1819060D3*
Y1719060D3*
Y1619060D3*
D26*
X500000Y3500000D3*
D18*
X1100000D3*
D27*
X1000000Y2450000D3*
X803150D3*
X1204724Y1292520D3*
X598425D3*
D24*
X1650000Y750000D3*
D25*
X1550000D3*
X1450000D3*
X1350000D3*
X1250000D3*
X1150000D3*
D28*
X1750000Y3500000D3*
D29*
X1250000D3*
D30*
X2450000Y700000D3*
Y1000000D3*
X1450000Y950000D3*
X1750000D3*
X950000D3*
X1250000D3*
X2489801Y1201699D3*
X2789801D3*
D28*
X2700000Y3800000D3*
D29*
X2200000D3*
D28*
X2050000Y3900000D3*
D29*
Y3400000D3*
D30*
X1500000Y1100000D3*
Y1400000D3*
D23*
X2301240Y732940D3*
D22*
Y832940D3*
Y932940D3*
Y1032940D3*
Y1132940D3*
Y1232940D3*
Y1332940D3*
Y1432940D3*
Y1532940D3*
Y1632940D3*
Y1732940D3*
Y1832940D3*
Y1932940D3*
Y2032940D3*
X2001240D3*
Y1932940D3*
Y1832940D3*
Y1732940D3*
Y1632940D3*
Y1532940D3*
Y1432940D3*
Y1332940D3*
Y1232940D3*
Y1132940D3*
Y1032940D3*
Y932940D3*
Y832940D3*
Y732940D3*
D32*
X1750000Y3000000D3*
X1850000D3*
X1950000D3*
D33*
X650000Y2750000D3*
D34*
X750000D3*
X850000D3*
Y3050000D3*
X750000D3*
X650000D3*
D33*
X1400000Y3250000D3*
D34*
X1300000D3*
X1200000D3*
Y2950000D3*
X1300000D3*
X1400000D3*
D35*
X2500000Y1550000D3*
Y1740000D3*
D33*
X2400000Y3300000D3*
D34*
X2600000D3*
Y3600000D3*
X2400000D3*
M02*
