G04 DipTrace 3.3.1.1*
G04 BottomSilk.gbr*
%MOIN*%
G04 #@! TF.FileFunction,Legend,Bot*
G04 #@! TF.Part,Single*
%ADD80C,0.010807*%
%ADD81C,0.009264*%
%FSLAX26Y26*%
G04*
G70*
G90*
G75*
G01*
G04 BotSilk*
%LPD*%
X1411442Y539426D2*
D80*
X1381264D1*
X1371283Y542753D1*
X1367878Y546158D1*
X1364551Y552812D1*
Y562872D1*
X1367878Y569526D1*
X1371283Y572931D1*
X1381264Y576258D1*
X1411442D1*
Y505922D1*
X1289313D2*
X1316163Y576258D1*
X1342936Y505922D1*
X1332877Y529367D2*
X1299373D1*
X1220808Y566199D2*
X1227462Y572931D1*
X1237521Y576258D1*
X1250908D1*
X1260967Y572931D1*
X1267699Y566199D1*
Y559544D1*
X1264294Y552812D1*
X1260967Y549485D1*
X1254312Y546158D1*
X1234194Y539426D1*
X1227462Y536099D1*
X1224135Y532694D1*
X1220808Y526040D1*
Y515981D1*
X1227462Y509326D1*
X1237521Y505922D1*
X1250908D1*
X1260967Y509326D1*
X1267699Y515981D1*
X1199193Y576258D2*
Y526040D1*
X1195866Y515981D1*
X1189134Y509326D1*
X1179075Y505922D1*
X1172420D1*
X1162361Y509326D1*
X1155629Y515981D1*
X1152302Y526040D1*
Y576258D1*
X1062646D2*
X1045855Y505922D1*
X1029142Y576258D1*
X1012428Y505922D1*
X995637Y576258D1*
X974022D2*
Y505922D1*
X933863D1*
X844207Y576258D2*
X817435Y505922D1*
X790662Y576258D1*
X765720Y512654D2*
X769047Y509249D1*
X765720Y505922D1*
X762315Y509249D1*
X765720Y512654D1*
X720582Y576180D2*
X730641Y572853D1*
X737373Y562794D1*
X740700Y546081D1*
Y536022D1*
X737373Y519308D1*
X730641Y509249D1*
X720582Y505922D1*
X713928D1*
X703869Y509249D1*
X697214Y519308D1*
X693810Y536022D1*
Y546081D1*
X697214Y562794D1*
X703869Y572853D1*
X713928Y576180D1*
X720582D1*
X697214Y562794D2*
X737373Y519308D1*
X672195Y562794D2*
X665463Y566199D1*
X655404Y576180D1*
Y505922D1*
X2581946Y4079583D2*
D81*
Y4039458D1*
Y4025132D2*
X2584864Y4022213D1*
X2581946Y4019362D1*
X2579094Y4022213D1*
X2581946Y4025132D1*
X2502246Y4079650D2*
Y4019362D1*
X2462054Y4079650D2*
Y4019362D1*
X2502246Y4050932D2*
X2462054D1*
X2443527Y4079650D2*
X2440675Y4076798D1*
X2437756Y4079650D1*
X2440675Y4082568D1*
X2443527Y4079650D1*
X2440675Y4059554D2*
Y4019362D1*
X2384807Y4056702D2*
Y4010740D1*
X2387659Y4002184D1*
X2390511Y3999266D1*
X2396281Y3996414D1*
X2404903D1*
X2410607Y3999266D1*
X2384807Y4048080D2*
X2390511Y4053783D1*
X2396281Y4056702D1*
X2404903D1*
X2410607Y4053783D1*
X2416377Y4048080D1*
X2419229Y4039458D1*
Y4033687D1*
X2416377Y4025132D1*
X2410607Y4019362D1*
X2404903Y4016510D1*
X2396281D1*
X2390511Y4019362D1*
X2384807Y4025132D1*
X2366280Y4079650D2*
Y4019362D1*
Y4048080D2*
X2357658Y4056702D1*
X2351888Y4059554D1*
X2343266D1*
X2337562Y4056702D1*
X2334710Y4048080D1*
Y4019362D1*
X2257862Y4079650D2*
X2234914Y4019362D1*
X2211966Y4079650D1*
X2179113Y4059554D2*
X2184817Y4056702D1*
X2190587Y4050932D1*
X2193439Y4042309D1*
Y4036606D1*
X2190587Y4027984D1*
X2184817Y4022280D1*
X2179113Y4019362D1*
X2170491D1*
X2164721Y4022280D1*
X2159017Y4027984D1*
X2156099Y4036606D1*
Y4042309D1*
X2159017Y4050932D1*
X2164721Y4056702D1*
X2170491Y4059554D1*
X2179113D1*
X2137572Y4079650D2*
Y4019362D1*
X2110423Y4079650D2*
Y4030836D1*
X2107571Y4022280D1*
X2101801Y4019362D1*
X2096097D1*
X2119045Y4059554D2*
X2098949D1*
X2043148D2*
Y4019362D1*
Y4050932D2*
X2048852Y4056702D1*
X2054622Y4059554D1*
X2063178D1*
X2068948Y4056702D1*
X2074652Y4050932D1*
X2077570Y4042309D1*
Y4036606D1*
X2074652Y4027984D1*
X2068948Y4022280D1*
X2063178Y4019362D1*
X2054622D1*
X2048852Y4022280D1*
X2043148Y4027984D1*
X1990199Y4056702D2*
Y4010740D1*
X1993051Y4002184D1*
X1995903Y3999266D1*
X2001673Y3996414D1*
X2010295D1*
X2015999Y3999266D1*
X1990199Y4048080D2*
X1995903Y4053783D1*
X2001673Y4056702D1*
X2010295D1*
X2015999Y4053783D1*
X2021769Y4048080D1*
X2024621Y4039458D1*
Y4033687D1*
X2021769Y4025132D1*
X2015999Y4019362D1*
X2010295Y4016510D1*
X2001673D1*
X1995903Y4019362D1*
X1990199Y4025132D1*
X1971672Y4042309D2*
X1937250D1*
Y4048080D1*
X1940102Y4053850D1*
X1942954Y4056702D1*
X1948724Y4059554D1*
X1957346D1*
X1963050Y4056702D1*
X1968820Y4050932D1*
X1971672Y4042309D1*
Y4036606D1*
X1968820Y4027984D1*
X1963050Y4022280D1*
X1957346Y4019362D1*
X1948724D1*
X1942954Y4022280D1*
X1937250Y4027984D1*
X1857484Y4079583D2*
Y4039458D1*
Y4025132D2*
X1860402Y4022213D1*
X1857484Y4019362D1*
X1854632Y4022213D1*
X1857484Y4025132D1*
M02*
