M48
INCH
T01C0.0315
T02C0.032
T03C0.035
T04C0.0354
T05C0.038
T06C0.0394
T07C0.0433
T08C0.046
T09C0.046
T10C0.0512
T11C0.1181
%
T01
X+010000Y+024500
X+008031Y+024500
X+005984Y+012925
X+012047Y+012925
T02
X+025000Y+015500
X+025000Y+017400
T03
X+017500Y+030000
X+018500Y+030000
X+019500Y+030000
T04
X+016500Y+018500
X+016500Y+021059
X+020012Y+020329
X+020012Y+019329
X+020012Y+018329
X+020012Y+017329
X+020012Y+016329
X+020012Y+015329
X+020012Y+014329
X+020012Y+013329
X+020012Y+012329
X+020012Y+011329
X+020012Y+010329
X+020012Y+009329
X+020012Y+008329
X+020012Y+007329
X+023012Y+007329
X+023012Y+008329
X+023012Y+009329
X+023012Y+010329
X+023012Y+011329
X+023012Y+012329
X+023012Y+013329
X+023012Y+014329
X+023012Y+015329
X+023012Y+016329
X+023012Y+017329
X+023012Y+018329
X+023012Y+019329
X+023012Y+020329
X+024898Y+012017
X+024500Y+010000
X+024500Y+007000
X+027898Y+012017
X+017500Y+009500
X+015000Y+011000
X+014500Y+009500
X+012500Y+009500
X+009500Y+009500
X+015000Y+014000
X+008500Y+027500
X+007500Y+027500
X+006500Y+027500
X+006500Y+030500
X+007500Y+030500
X+008500Y+030500
X+012000Y+029500
X+013000Y+029500
X+014000Y+029500
X+014000Y+032500
X+013000Y+032500
X+012000Y+032500
X+024000Y+033000
X+026000Y+033000
X+026000Y+036000
X+024000Y+036000
T05
X+017500Y+035000
X+020500Y+034000
X+022000Y+038000
X+020500Y+039000
X+027000Y+038000
X+012500Y+035000
T06
X+027000Y+009500
X+027000Y+008500
X+017500Y+012000
X+017500Y+013000
X+017500Y+015500
X+017500Y+016500
X+015000Y+016500
X+015000Y+015500
T07
X+007500Y+010500
X+007500Y+009500
X+007500Y+008500
X+007500Y+007500
X+011500Y+007500
X+012500Y+007500
X+013500Y+007500
X+014500Y+007500
X+015500Y+007500
X+016500Y+007500
X+028079Y+016191
X+028079Y+017191
X+028079Y+018191
X+028079Y+019191
T08
X+011000Y+035000
T09
X+005000Y+035000
T10
X+008000Y+038500
X+009969Y+038500
X+013500Y+038500
X+015469Y+038500
X+025500Y+029000
X+025500Y+021126
T11
X+004500Y+041000
X+028500Y+041000
X+028500Y+005500
X+004500Y+005500
T00
M30
