G04 DipTrace 3.3.1.1*
G04 Top.gbr*
%MOIN*%
G04 #@! TF.FileFunction,Copper,L1,Top*
G04 #@! TF.Part,Single*
G04 #@! TA.AperFunction,Conductor*
%ADD13C,0.012992*%
%ADD14C,0.07874*%
%ADD15C,0.019685*%
G04 #@! TA.AperFunction,ComponentPad*
%ADD16C,0.094488*%
%ADD18C,0.07*%
%ADD21C,0.076772*%
%ADD22C,0.062992*%
%ADD23R,0.062992X0.062992*%
%ADD24R,0.066929X0.066929*%
%ADD25C,0.066929*%
%ADD26C,0.07*%
%ADD27R,0.051496X0.051496*%
%ADD28C,0.06*%
%ADD29C,0.06*%
%ADD30C,0.074*%
%ADD31R,0.07874X0.023622*%
G04 #@! TA.AperFunction,ComponentPad*
%ADD32O,0.065X0.12*%
%ADD33R,0.059055X0.059055*%
%ADD34C,0.059055*%
%ADD35C,0.048*%
%FSLAX26Y26*%
G04*
G70*
G90*
G75*
G01*
G04 Top*
%LPD*%
X1650000Y1850000D2*
D13*
X1506102Y1993898D1*
Y2456102D1*
X1550000Y2500000D1*
Y2550000D1*
X1629921D1*
X1688783D1*
Y2600000D1*
X1714768Y2625984D1*
Y2650000D1*
X1941142D1*
Y2600000D1*
X2000000D1*
X1714768Y2650000D2*
Y2674016D1*
X1688783Y2700000D1*
X1629921D1*
X2301240Y1432940D2*
X2201240Y1332940D1*
X2001240D1*
X1629921Y2650000D2*
X1550000D1*
Y2600000D1*
X1629921D1*
X1550000Y2500000D2*
X1629921D1*
X2000000Y2600000D2*
X2058862D1*
Y2550000D1*
X2000000D1*
X1941142Y2650000D2*
X2000000D1*
X2058862D1*
Y2690189D1*
Y2700000D1*
X2000000D1*
X1200000Y2950000D2*
X1150000Y2900000D1*
X850000D1*
X750000Y2800000D1*
Y2750000D1*
X1629921Y2700000D2*
X1450000D1*
X1200000Y2950000D1*
X2001240Y1332940D2*
X1882940D1*
X1750000Y1200000D1*
X1629921Y2600000D2*
X1688783D1*
X2550000Y2900000D2*
X2500000D1*
X2290189Y2690189D1*
X2058862D1*
X2500000Y1550000D2*
X2396543D1*
X2379483Y1532940D1*
X2301240D1*
X2500000Y1740000D2*
X2392940Y1632940D1*
X2301240D1*
X1250000Y950000D2*
X1400000Y1100000D1*
X1500000D1*
X1569992Y1169992D1*
Y1459528D1*
X1635465Y1525000D1*
X1661449Y1499016D1*
X1907312D1*
X1941236Y1532940D1*
X2001240D1*
X1500000Y1100000D2*
X1600000D1*
X1750000Y950000D1*
X1500000Y1650000D2*
X1550000D1*
X1635465Y1564535D1*
Y1525000D1*
X2000000Y2400000D2*
X2500000D1*
X2950000Y1950000D1*
Y1250000D1*
X2800000Y1100000D1*
X2450000D1*
X2350000Y1000000D1*
Y950000D1*
X2450000Y850000D1*
Y700000D1*
Y1000000D2*
X2573346D1*
X2623346Y950000D1*
X2700000D1*
X750000Y850000D2*
X1350000D1*
X1450000Y950000D1*
X1567060Y832940D1*
X2001240D1*
Y732940D2*
X1884588D1*
X1814575Y802953D1*
X987472D1*
X934520Y750000D1*
X750000D1*
X2807860Y1619060D2*
X2624335Y1435535D1*
Y1158924D1*
X2598350Y1132940D1*
X2301240D1*
X1629921Y2450000D2*
X1800000D1*
X1850000Y2400000D1*
Y2300000D1*
X1900000Y2250000D1*
X2412598D1*
X2550000Y2112598D1*
X2807860Y1719060D2*
X2690948D1*
X2626520Y1783488D1*
X2418793D1*
X2368244Y1732940D1*
X2301240D1*
X2807860Y1819060D2*
X2780940D1*
X2750000Y1850000D1*
X2350000D1*
X2332940Y1832940D1*
X2301240D1*
X800000Y3850000D2*
D14*
X700000D1*
X500000Y3650000D1*
Y3500000D1*
X1750000D2*
D15*
X1850000Y3600000D1*
X2400000D1*
Y3300000D2*
X1450000D1*
X1400000Y3250000D1*
X2600000Y3300000D2*
X2500000Y3200000D1*
X1500000D1*
X1450000Y3150000D1*
X1350000D1*
X1300000Y3200000D1*
Y3250000D1*
X2050000Y3400000D2*
X1200000D1*
X1050000Y3250000D1*
X750000D1*
X650000Y3150000D1*
Y3050000D1*
X2301240Y1232940D2*
D13*
X2391709D1*
X2422949Y1201699D1*
X2489801D1*
X850000Y3050000D2*
D15*
X1500000D1*
X1650000Y2900000D1*
X1900000D1*
X1950000Y2950000D1*
Y3000000D1*
X1629921Y2400000D2*
D13*
X1746071D1*
X1772059Y2374012D1*
Y2277941D1*
X1900000Y2150000D1*
X2184180D1*
X2301240Y2032940D1*
X1629921Y2350000D2*
X1704488D1*
Y2245512D1*
X1917060Y2032940D1*
X2001240D1*
Y1932940D2*
X1675984D1*
X1650000Y1958924D1*
Y2105906D1*
X1150000Y750000D2*
X1350000Y550000D1*
X2400000D1*
X2700000Y850000D1*
X1250000Y750000D2*
X1400000Y600000D1*
X2068301D1*
X2301240Y832940D1*
X1350000Y750000D2*
X1430500Y669500D1*
X2037801D1*
X2301240Y932940D1*
X1100000Y3500000D2*
D14*
Y3600000D1*
X1350000Y3850000D1*
X1250000Y3500000D2*
D13*
X1100000D1*
D15*
Y3450000D1*
X1000000Y3350000D1*
X700000D1*
X500000Y3150000D1*
Y2700000D1*
X750000Y2450000D1*
X803150D1*
D16*
X800000Y3850000D3*
X996850D3*
X1350000D3*
X1546850D3*
D18*
X1650000Y1850000D3*
Y2105906D3*
D21*
X2550000Y2900000D3*
Y2112598D3*
D22*
X2700000Y950000D3*
D23*
Y850000D3*
D22*
X1500000Y1650000D3*
D23*
Y1550000D3*
D22*
X1750000Y1300000D3*
D23*
Y1200000D3*
D22*
Y1550000D3*
D23*
Y1650000D3*
D24*
X750000Y1050000D3*
D25*
Y950000D3*
Y850000D3*
Y750000D3*
D24*
X2807860Y1919060D3*
D25*
Y1819060D3*
Y1719060D3*
Y1619060D3*
D26*
X500000Y3500000D3*
D18*
X1100000D3*
D27*
X1000000Y2450000D3*
X803150D3*
X1204724Y1292520D3*
X598425D3*
D24*
X1650000Y750000D3*
D25*
X1550000D3*
X1450000D3*
X1350000D3*
X1250000D3*
X1150000D3*
D28*
X1750000Y3500000D3*
D29*
X1250000D3*
D30*
X2450000Y700000D3*
Y1000000D3*
X1450000Y950000D3*
X1750000D3*
X950000D3*
X1250000D3*
X2489801Y1201699D3*
X2789801D3*
D28*
X2700000Y3800000D3*
D29*
X2200000D3*
D28*
X2050000Y3900000D3*
D29*
Y3400000D3*
D30*
X1500000Y1100000D3*
Y1400000D3*
D31*
X2000000Y2350000D3*
Y2400000D3*
Y2450000D3*
Y2500000D3*
Y2550000D3*
Y2600000D3*
Y2650000D3*
Y2700000D3*
X1629921D3*
Y2650000D3*
Y2600000D3*
Y2550000D3*
Y2500000D3*
Y2450000D3*
Y2400000D3*
Y2350000D3*
D23*
X2301240Y732940D3*
D22*
Y832940D3*
Y932940D3*
Y1032940D3*
Y1132940D3*
Y1232940D3*
Y1332940D3*
Y1432940D3*
Y1532940D3*
Y1632940D3*
Y1732940D3*
Y1832940D3*
Y1932940D3*
Y2032940D3*
X2001240D3*
Y1932940D3*
Y1832940D3*
Y1732940D3*
Y1632940D3*
Y1532940D3*
Y1432940D3*
Y1332940D3*
Y1232940D3*
Y1132940D3*
Y1032940D3*
Y932940D3*
Y832940D3*
Y732940D3*
D32*
X1750000Y3000000D3*
X1850000D3*
X1950000D3*
D33*
X650000Y2750000D3*
D34*
X750000D3*
X850000D3*
Y3050000D3*
X750000D3*
X650000D3*
D33*
X1400000Y3250000D3*
D34*
X1300000D3*
X1200000D3*
Y2950000D3*
X1300000D3*
X1400000D3*
D35*
X2500000Y1550000D3*
Y1740000D3*
D33*
X2400000Y3300000D3*
D34*
X2600000D3*
Y3600000D3*
X2400000D3*
M02*
