G04 DipTrace 3.3.1.1*
G04 TopAssy.gbr*
%MOIN*%
G04 #@! TF.FileFunction,Drawing,Top*
G04 #@! TF.Part,Single*
%ADD10C,0.009843*%
%ADD17C,0.008*%
%ADD19C,0.005*%
%ADD82C,0.004*%
%ADD83C,0.003088*%
%FSLAX26Y26*%
G04*
G70*
G90*
G75*
G01*
G04 TopAssy*
%LPD*%
X1600013Y1977953D2*
D17*
G02X1600013Y1977953I49987J0D01*
G01*
X2160261Y2576786D2*
D19*
G02X2160261Y2576786I393672J0D01*
G01*
X809845Y1139370D2*
D10*
Y660630D1*
X2867705Y2008430D2*
Y1529690D1*
X1299213Y2540551D2*
D19*
Y1201969D1*
X503937D1*
Y2540551D1*
X1299213D1*
X1729134Y690161D2*
D10*
X1070866D1*
X2559098Y2223358D2*
D82*
X2524654D1*
X2541854Y2240558D2*
Y2206114D1*
X2541876Y2831140D2*
Y2809032D1*
X843217Y999422D2*
D83*
X823121D1*
X823120Y990800D1*
X824093Y987926D1*
X825044Y986976D1*
X826945Y986025D1*
X829819D1*
X831743Y986976D1*
X832693Y987926D1*
X833644Y990800D1*
X834617Y987926D1*
X835567Y986976D1*
X837468Y986025D1*
X839392D1*
X841293Y986976D1*
X842266Y987926D1*
X843216Y990800D1*
X843217Y999422D1*
X833644D2*
Y990800D1*
X843216Y974101D2*
X842266Y976025D1*
X840342Y977926D1*
X838441Y978899D1*
X835567Y979849D1*
X830770D1*
X827918Y978899D1*
X825994Y977926D1*
X824093Y976025D1*
X823120Y974101D1*
Y970277D1*
X824093Y968375D1*
X825994Y966452D1*
X827918Y965501D1*
X830770Y964551D1*
X835567D1*
X838441Y965501D1*
X840342Y966452D1*
X842266Y968375D1*
X843216Y970277D1*
Y974101D1*
X823121Y943054D2*
X843216Y950726D1*
X823120Y958375D1*
X829819Y955501D2*
Y945928D1*
X833644Y936879D2*
Y928279D1*
X834617Y925405D1*
X835567Y924432D1*
X837468Y923481D1*
X839392D1*
X841293Y924432D1*
X842266Y925405D1*
X843216Y928279D1*
Y936879D1*
X823121D1*
X833644Y930180D2*
X823121Y923481D1*
X843216Y917306D2*
X823121D1*
Y910607D1*
X824093Y907733D1*
X825995Y905810D1*
X827918Y904859D1*
X830770Y903908D1*
X835567D1*
X838441Y904859D1*
X840342Y905810D1*
X842266Y907733D1*
X843216Y910607D1*
Y917306D1*
Y865868D2*
Y878292D1*
X823121D1*
Y865868D1*
X833644Y878292D2*
Y870643D1*
X843216Y859692D2*
X823121D1*
Y852993D1*
X824093Y850119D1*
X825995Y848196D1*
X827918Y847245D1*
X830770Y846295D1*
X835567D1*
X838441Y847245D1*
X840342Y848196D1*
X842266Y850119D1*
X843216Y852993D1*
Y859692D1*
X838441Y825771D2*
X840342Y826722D1*
X842266Y828645D1*
X843217Y830546D1*
Y834371D1*
X842266Y836294D1*
X840342Y838195D1*
X838441Y839168D1*
X835567Y840119D1*
X830770D1*
X827918Y839168D1*
X825995Y838195D1*
X824093Y836294D1*
X823121Y834371D1*
Y830546D1*
X824093Y828645D1*
X825995Y826722D1*
X827918Y825771D1*
X830770D1*
Y830546D1*
X843217Y807171D2*
Y819595D1*
X823121D1*
Y807171D1*
X833644Y819595D2*
Y811946D1*
X2901076Y1868483D2*
X2880980D1*
Y1859861D1*
X2881953Y1856987D1*
X2882903Y1856036D1*
X2884805Y1855085D1*
X2887679D1*
X2889602Y1856036D1*
X2890553Y1856987D1*
X2891503Y1859861D1*
X2892476Y1856987D1*
X2893427Y1856036D1*
X2895328Y1855085D1*
X2897251D1*
X2899153Y1856036D1*
X2900125Y1856987D1*
X2901076Y1859861D1*
Y1868483D1*
X2891503D2*
Y1859861D1*
X2901076Y1843162D2*
X2900125Y1845085D1*
X2898202Y1846986D1*
X2896301Y1847959D1*
X2893427Y1848910D1*
X2888629D1*
X2885777Y1847959D1*
X2883854Y1846986D1*
X2881953Y1845085D1*
X2880980Y1843162D1*
Y1839337D1*
X2881953Y1837436D1*
X2883854Y1835512D1*
X2885777Y1834562D1*
X2888629Y1833611D1*
X2893427D1*
X2896301Y1834562D1*
X2898202Y1835512D1*
X2900125Y1837436D1*
X2901076Y1839337D1*
Y1843162D1*
X2880980Y1812115D2*
X2901076Y1819786D1*
X2880980Y1827435D1*
X2887679Y1824561D2*
Y1814989D1*
X2891503Y1805939D2*
Y1797339D1*
X2892476Y1794465D1*
X2893427Y1793492D1*
X2895328Y1792542D1*
X2897251D1*
X2899153Y1793492D1*
X2900125Y1794465D1*
X2901076Y1797339D1*
Y1805939D1*
X2880980D1*
X2891503Y1799240D2*
X2880980Y1792542D1*
X2901076Y1786366D2*
X2880980D1*
Y1779667D1*
X2881953Y1776793D1*
X2883854Y1774870D1*
X2885777Y1773919D1*
X2888629Y1772969D1*
X2893427D1*
X2896301Y1773919D1*
X2898202Y1774870D1*
X2900125Y1776793D1*
X2901076Y1779667D1*
Y1786366D1*
Y1734928D2*
Y1747353D1*
X2880980D1*
Y1734928D1*
X2891503Y1747353D2*
Y1739703D1*
X2901076Y1728752D2*
X2880980D1*
Y1722054D1*
X2881953Y1719180D1*
X2883854Y1717256D1*
X2885777Y1716306D1*
X2888629Y1715355D1*
X2893427D1*
X2896301Y1716306D1*
X2898202Y1717256D1*
X2900125Y1719180D1*
X2901076Y1722054D1*
Y1728752D1*
X2896301Y1694831D2*
X2898202Y1695782D1*
X2900125Y1697705D1*
X2901076Y1699607D1*
Y1703431D1*
X2900125Y1705355D1*
X2898202Y1707256D1*
X2896301Y1708229D1*
X2893427Y1709179D1*
X2888629D1*
X2885777Y1708229D1*
X2883854Y1707256D1*
X2881953Y1705355D1*
X2880980Y1703431D1*
Y1699607D1*
X2881953Y1697705D1*
X2883854Y1695782D1*
X2885777Y1694831D1*
X2888629D1*
Y1699607D1*
X2901076Y1676231D2*
Y1688656D1*
X2880980D1*
Y1676231D1*
X2891503Y1688656D2*
Y1681006D1*
X1499434Y651862D2*
Y671958D1*
X1490812D1*
X1487938Y670986D1*
X1486988Y670035D1*
X1486037Y668134D1*
Y665260D1*
X1486988Y663336D1*
X1487938Y662386D1*
X1490812Y661435D1*
X1487938Y660462D1*
X1486988Y659512D1*
X1486037Y657610D1*
Y655687D1*
X1486988Y653786D1*
X1487938Y652813D1*
X1490812Y651862D1*
X1499434D1*
Y661435D2*
X1490812D1*
X1474113Y651862D2*
X1476037Y652813D1*
X1477938Y654736D1*
X1478911Y656638D1*
X1479861Y659512D1*
Y664309D1*
X1478911Y667161D1*
X1477938Y669084D1*
X1476037Y670986D1*
X1474113Y671958D1*
X1470289D1*
X1468387Y670986D1*
X1466464Y669084D1*
X1465513Y667161D1*
X1464563Y664309D1*
Y659512D1*
X1465513Y656638D1*
X1466464Y654736D1*
X1468387Y652813D1*
X1470289Y651862D1*
X1474113D1*
X1443066Y671958D2*
X1450738Y651862D1*
X1458387Y671958D1*
X1455513Y665260D2*
X1445940D1*
X1436891Y661435D2*
X1428291D1*
X1425417Y660462D1*
X1424444Y659512D1*
X1423493Y657610D1*
Y655687D1*
X1424444Y653786D1*
X1425417Y652813D1*
X1428291Y651862D1*
X1436891D1*
Y671958D1*
X1430192Y661435D2*
X1423493Y671958D1*
X1417318Y651862D2*
Y671958D1*
X1410619D1*
X1407745Y670985D1*
X1405821Y669084D1*
X1404871Y667161D1*
X1403920Y664309D1*
Y659512D1*
X1404871Y656638D1*
X1405821Y654736D1*
X1407745Y652813D1*
X1410619Y651862D1*
X1417318D1*
X1365880D2*
X1378304D1*
Y671958D1*
X1365880D1*
X1378304Y661435D2*
X1370655D1*
X1359704Y651862D2*
Y671958D1*
X1353005D1*
X1350131Y670985D1*
X1348208Y669084D1*
X1347257Y667161D1*
X1346307Y664309D1*
Y659512D1*
X1347257Y656638D1*
X1348208Y654736D1*
X1350131Y652813D1*
X1353005Y651862D1*
X1359704D1*
X1325783Y656638D2*
X1326733Y654736D1*
X1328657Y652813D1*
X1330558Y651862D1*
X1334383D1*
X1336306Y652813D1*
X1338207Y654736D1*
X1339180Y656638D1*
X1340131Y659512D1*
Y664309D1*
X1339180Y667161D1*
X1338207Y669084D1*
X1336306Y670985D1*
X1334383Y671958D1*
X1330558D1*
X1328657Y670985D1*
X1326733Y669084D1*
X1325783Y667161D1*
Y664309D1*
X1330558D1*
X1307183Y651862D2*
X1319607D1*
Y671958D1*
X1307183D1*
X1319607Y661435D2*
X1311958D1*
M02*
