G04 DipTrace 3.3.1.1*
G04 TopMask.gbr*
%MOIN*%
G04 #@! TF.FileFunction,Soldermask,Top*
G04 #@! TF.Part,Single*
%ADD24R,0.066929X0.066929*%
%ADD25C,0.066929*%
%ADD36C,0.11811*%
%ADD49C,0.055874*%
%ADD53O,0.072874X0.127874*%
%ADD55R,0.086614X0.031496*%
%ADD57C,0.081874*%
%ADD59C,0.067874*%
%ADD61C,0.067874*%
%ADD63R,0.05937X0.05937*%
%ADD65C,0.077874*%
%ADD67C,0.074803*%
%ADD68R,0.074803X0.074803*%
%ADD69R,0.070866X0.070866*%
%ADD71C,0.070866*%
%ADD73C,0.084646*%
%ADD75C,0.077874*%
%ADD77C,0.102362*%
%FSLAX26Y26*%
G04*
G70*
G90*
G75*
G01*
G04 TopMask*
%LPD*%
D77*
X800000Y3850000D3*
X996850D3*
X1350000D3*
X1546850D3*
D75*
X1650000Y1850000D3*
Y2105906D3*
D73*
X2550000Y2900000D3*
Y2112598D3*
D71*
X2700000Y950000D3*
D69*
Y850000D3*
D71*
X1500000Y1650000D3*
D69*
Y1550000D3*
D71*
X1750000Y1300000D3*
D69*
Y1200000D3*
D71*
Y1550000D3*
D69*
Y1650000D3*
D68*
X750000Y1050000D3*
D67*
Y950000D3*
Y850000D3*
Y750000D3*
D68*
X2807860Y1919060D3*
D67*
Y1819060D3*
Y1719060D3*
Y1619060D3*
D65*
X500000Y3500000D3*
D75*
X1100000D3*
D63*
X1000000Y2450000D3*
X803150D3*
X1204724Y1292520D3*
X598425D3*
D36*
X450000Y4100000D3*
X2850000D3*
X450000Y550000D3*
X2850000D3*
D68*
X1650000Y750000D3*
D67*
X1550000D3*
X1450000D3*
X1350000D3*
X1250000D3*
X1150000D3*
D61*
X1750000Y3500000D3*
D59*
X1250000D3*
D57*
X2450000Y700000D3*
Y1000000D3*
X1450000Y950000D3*
X1750000D3*
X950000D3*
X1250000D3*
X2489801Y1201699D3*
X2789801D3*
D61*
X2700000Y3800000D3*
D59*
X2200000D3*
D61*
X2050000Y3900000D3*
D59*
Y3400000D3*
D57*
X1500000Y1100000D3*
Y1400000D3*
D55*
X2000000Y2350000D3*
Y2400000D3*
Y2450000D3*
Y2500000D3*
Y2550000D3*
Y2600000D3*
Y2650000D3*
Y2700000D3*
X1629921D3*
Y2650000D3*
Y2600000D3*
Y2550000D3*
Y2500000D3*
Y2450000D3*
Y2400000D3*
Y2350000D3*
D69*
X2301240Y732940D3*
D71*
Y832940D3*
Y932940D3*
Y1032940D3*
Y1132940D3*
Y1232940D3*
Y1332940D3*
Y1432940D3*
Y1532940D3*
Y1632940D3*
Y1732940D3*
Y1832940D3*
Y1932940D3*
Y2032940D3*
X2001240D3*
Y1932940D3*
Y1832940D3*
Y1732940D3*
Y1632940D3*
Y1532940D3*
Y1432940D3*
Y1332940D3*
Y1232940D3*
Y1132940D3*
Y1032940D3*
Y932940D3*
Y832940D3*
Y732940D3*
D53*
X1750000Y3000000D3*
X1850000D3*
X1950000D3*
D24*
X650000Y2750000D3*
D25*
X750000D3*
X850000D3*
Y3050000D3*
X750000D3*
X650000D3*
D24*
X1400000Y3250000D3*
D25*
X1300000D3*
X1200000D3*
Y2950000D3*
X1300000D3*
X1400000D3*
D49*
X2500000Y1550000D3*
Y1740000D3*
D24*
X2400000Y3300000D3*
D25*
X2600000D3*
Y3600000D3*
X2400000D3*
M02*
