G04 DipTrace 3.3.1.1*
G04 TopSilk.gbr*
%MOIN*%
G04 #@! TF.FileFunction,Legend,Top*
G04 #@! TF.Part,Single*
%ADD10C,0.009843*%
%ADD17C,0.008*%
%ADD79C,0.00772*%
%ADD81C,0.009264*%
%FSLAX26Y26*%
G04*
G70*
G90*
G75*
G01*
G04 TopSilk*
%LPD*%
X701575Y4046850D2*
D10*
X1095276D1*
Y3692520D1*
X701575D1*
Y4046850D1*
Y3731850D2*
X1095276D1*
X1251575Y4046850D2*
X1645276D1*
Y3692520D1*
X1251575D1*
Y4046850D1*
Y3731850D2*
X1645276D1*
X1417717Y1977953D2*
D17*
G02X1417717Y1977953I232283J0D01*
G01*
X2699637Y2172011D2*
Y2054684D1*
X2400363D1*
Y2172011D1*
X2699637Y2994054D2*
X2400363D1*
X2699637Y2172011D2*
G03X2699637Y2994054I-150227J411021D01*
G01*
X2400363Y2172011D2*
G02X2400363Y2994054I150227J411021D01*
G01*
X2760000Y830060D2*
D10*
Y969940D1*
X2640000Y830060D2*
Y969940D1*
X2760000D2*
G03X2640000Y969940I-60000J60D01*
G01*
Y830060D2*
G03X2760000Y830060I60000J-60D01*
G01*
X1560000Y1530060D2*
Y1669940D1*
X1440000Y1530060D2*
Y1669940D1*
X1560000D2*
G03X1440000Y1669940I-60000J60D01*
G01*
Y1530060D2*
G03X1560000Y1530060I60000J-60D01*
G01*
X1810000Y1180060D2*
Y1319940D1*
X1690000Y1180060D2*
Y1319940D1*
X1810000D2*
G03X1690000Y1319940I-60000J60D01*
G01*
Y1180060D2*
G03X1810000Y1180060I60000J-60D01*
G01*
X1690000Y1669940D2*
Y1530060D1*
X1810000Y1669940D2*
Y1530060D1*
X1690000D2*
G03X1810000Y1530060I60000J-60D01*
G01*
Y1669940D2*
G03X1690000Y1669940I-60000J60D01*
G01*
X800005Y1100018D2*
X700000D1*
Y699982D1*
X800005D1*
Y1100018D1*
X2857865Y1969078D2*
X2757860D1*
Y1569043D1*
X2857865D1*
Y1969078D1*
X1000330Y3425000D2*
X599670D1*
Y3575000D2*
Y3425000D1*
X1000330Y3575000D2*
X599670D1*
X1000330D2*
Y3425000D1*
X1699973Y699998D2*
X1100027D1*
Y800000D1*
X1699973D1*
Y699998D1*
X1349920Y3550000D2*
X1650080D1*
Y3450000D2*
Y3550000D1*
X1349920Y3450000D2*
X1650080D1*
X1349920D2*
Y3550000D1*
X2420000Y749992D2*
D17*
Y950008D1*
X2450000D1*
X2480000D1*
Y749992D1*
X2450000D1*
X2420000D1*
X2450000Y950008D2*
Y959993D1*
Y749992D2*
Y740007D1*
X1499992Y980000D2*
X1700008D1*
Y950000D1*
Y920000D1*
X1499992D1*
Y950000D1*
Y980000D1*
X1700008Y950000D2*
X1709993D1*
X1499992D2*
X1490007D1*
X999992Y980000D2*
X1200008D1*
Y950000D1*
Y920000D1*
X999992D1*
Y950000D1*
Y980000D1*
X1200008Y950000D2*
X1209993D1*
X999992D2*
X990007D1*
X2539793Y1231699D2*
X2739808D1*
Y1201699D1*
Y1171700D1*
X2539793D1*
Y1201699D1*
Y1231699D1*
X2739808Y1201699D2*
X2749794D1*
X2539793D2*
X2529807D1*
X2299920Y3850000D2*
D10*
X2600080D1*
Y3750000D2*
Y3850000D1*
X2299920Y3750000D2*
X2600080D1*
X2299920D2*
Y3850000D1*
X2000000Y3499920D2*
Y3800080D1*
X2100000D2*
X2000000D1*
X2100000Y3499920D2*
Y3800080D1*
Y3499920D2*
X2000000D1*
X1470000Y1149992D2*
D17*
Y1350008D1*
X1500000D1*
X1530000D1*
Y1149992D1*
X1500000D1*
X1470000D1*
X1500000Y1350008D2*
Y1359993D1*
Y1149992D2*
Y1140007D1*
X1940944Y2320277D2*
D10*
Y2729723D1*
X1688977Y2320277D2*
Y2729723D1*
X1940944D2*
X1688977D1*
X1940944Y2320277D2*
X1846468D1*
X1783454D2*
X1688977D1*
X1846468D2*
G03X1783454Y2320277I-31507J-21D01*
G01*
X2253604Y674278D2*
Y2091601D1*
X2048876Y674278D2*
Y2091601D1*
X2253604D2*
X2048876D1*
X2253604Y674278D2*
X2174871D1*
X2048876D2*
X2127609D1*
X2174871D2*
G03X2127609Y674278I-23631J-103D01*
G01*
X1649307Y3099179D2*
X2050693D1*
Y2931004D1*
X1649307D1*
Y3099179D1*
G36*
X1637402Y3093719D2*
X2062598D1*
Y3113012D1*
X1637402D1*
Y3093719D1*
G37*
X935039Y2797633D2*
D10*
Y3002367D1*
X564961Y2797633D2*
X935039D1*
X564961Y3002367D2*
X935039D1*
X564961Y2797633D2*
Y2876374D1*
Y3002367D2*
Y2923626D1*
Y2876374D2*
G03X564961Y2923626I-15J23626D01*
G01*
X1114961Y3202367D2*
Y2997633D1*
X1485039Y3202367D2*
X1114961D1*
X1485039Y2997633D2*
X1114961D1*
X1485039Y3202367D2*
Y3123626D1*
Y2997633D2*
Y3076374D1*
Y3123626D2*
G03X1485039Y3076374I15J-23626D01*
G01*
X2592874Y1505336D2*
Y1784664D1*
X2407126Y1505336D2*
Y1784664D1*
Y1505336D2*
G03X2592874Y1505336I92874J8216D01*
G01*
Y1784664D2*
G03X2407126Y1784664I-92874J-8216D01*
G01*
X2663780Y3343684D2*
Y3556316D1*
Y3343684D2*
X2336220D1*
X2663780Y3556316D2*
X2336220D1*
Y3343684D2*
Y3426374D1*
Y3473626D2*
Y3556316D1*
X2404975Y3486408D2*
G02X2404975Y3512404I7709J12998D01*
G01*
X2389776Y3371259D2*
X2413393D1*
X2401569Y3383072D2*
Y3359446D1*
X2598431Y3363396D2*
Y3390935D1*
X2336220Y3426374D2*
G03X2340151Y3473626I-152J23802D01*
G01*
X2404975Y3512404D2*
G03X2401569Y3532654I-3389J9842D01*
G01*
X2601871Y3494307D2*
G02X2601871Y3520267I7545J12980D01*
G01*
G03X2598431Y3540554I-3492J9843D01*
G01*
X829300Y4069833D2*
D79*
X810122Y4120073D1*
X790998Y4069833D1*
X798183Y4086580D2*
X822115D1*
X880609Y4108135D2*
X878233Y4112888D1*
X873424Y4117697D1*
X868671Y4120073D1*
X859110D1*
X854301Y4117697D1*
X849548Y4112888D1*
X847116Y4108135D1*
X844739Y4100950D1*
Y4088957D1*
X847116Y4081827D1*
X849548Y4077019D1*
X854301Y4072265D1*
X859110Y4069833D1*
X868671D1*
X873424Y4072265D1*
X878233Y4077019D1*
X880609Y4081827D1*
X896049Y4061543D2*
X941480D1*
X956919Y4120073D2*
Y4069833D1*
X1005852Y4120073D2*
Y4069833D1*
X972359Y4120073D1*
Y4069833D1*
X1311244D2*
X1292066Y4120073D1*
X1272943Y4069833D1*
X1280128Y4086580D2*
X1304059D1*
X1362554Y4108135D2*
X1360177Y4112888D1*
X1355368Y4117697D1*
X1350615Y4120073D1*
X1341054D1*
X1336245Y4117697D1*
X1331492Y4112888D1*
X1329060Y4108135D1*
X1326684Y4100950D1*
Y4088957D1*
X1329060Y4081827D1*
X1331492Y4077019D1*
X1336245Y4072265D1*
X1341054Y4069833D1*
X1350615D1*
X1355368Y4072265D1*
X1360177Y4077019D1*
X1362554Y4081827D1*
X1377993Y4061543D2*
X1423424D1*
X1438864Y4120073D2*
Y4069833D1*
X1467548D1*
X1497358Y4120073D2*
X1492549Y4117697D1*
X1487796Y4112888D1*
X1485364Y4108135D1*
X1482988Y4100950D1*
Y4088957D1*
X1485364Y4081827D1*
X1487796Y4077019D1*
X1492549Y4072265D1*
X1497358Y4069833D1*
X1506919D1*
X1511673Y4072265D1*
X1516481Y4077019D1*
X1518858Y4081827D1*
X1521234Y4088957D1*
Y4100950D1*
X1518858Y4108135D1*
X1516481Y4112888D1*
X1511673Y4117697D1*
X1506919Y4120073D1*
X1497358D1*
X1574975Y4069833D2*
X1555797Y4120073D1*
X1536673Y4069833D1*
X1543859Y4086580D2*
X1567790D1*
X1590414Y4120073D2*
Y4069833D1*
X1607161D1*
X1614346Y4072265D1*
X1619155Y4077019D1*
X1621531Y4081827D1*
X1623908Y4088957D1*
Y4100950D1*
X1621531Y4108135D1*
X1619155Y4112888D1*
X1614346Y4117697D1*
X1607161Y4120073D1*
X1590414D1*
X1619537Y2283459D2*
Y2233219D1*
X1641092D1*
X1648277Y2235651D1*
X1650654Y2238028D1*
X1653030Y2242781D1*
Y2249966D1*
X1650654Y2254774D1*
X1648277Y2257151D1*
X1641092Y2259528D1*
X1648277Y2261959D1*
X1650654Y2264336D1*
X1653030Y2269089D1*
Y2273898D1*
X1650654Y2278651D1*
X1648277Y2281083D1*
X1641092Y2283459D1*
X1619537D1*
Y2259528D2*
X1641092D1*
X1668470Y2273842D2*
X1673278Y2276274D1*
X1680463Y2283404D1*
Y2233219D1*
X2508787Y3067277D2*
Y3017037D1*
X2530342D1*
X2537527Y3019469D1*
X2539904Y3021845D1*
X2542280Y3026599D1*
Y3033784D1*
X2539904Y3038592D1*
X2537527Y3040969D1*
X2530342Y3043345D1*
X2537527Y3045777D1*
X2539904Y3048154D1*
X2542280Y3052907D1*
Y3057715D1*
X2539904Y3062468D1*
X2537527Y3064900D1*
X2530342Y3067277D1*
X2508787D1*
Y3043345D2*
X2530342D1*
X2574466Y3067277D2*
Y3017037D1*
X2557720Y3067277D2*
X2591213D1*
X2578715Y904219D2*
X2573962Y901842D1*
X2569154Y897034D1*
X2566777Y892280D1*
Y882719D1*
X2569154Y877910D1*
X2573962Y873157D1*
X2578715Y870725D1*
X2585900Y868349D1*
X2597894D1*
X2605023Y870725D1*
X2609832Y873157D1*
X2614585Y877910D1*
X2617017Y882719D1*
Y892280D1*
X2614585Y897034D1*
X2609832Y901842D1*
X2605023Y904219D1*
X2576394Y919658D2*
X2573962Y924466D1*
X2566832Y931651D1*
X2617017D1*
X1378715Y1593469D2*
X1373962Y1591092D1*
X1369154Y1586284D1*
X1366777Y1581531D1*
Y1571969D1*
X1369154Y1567161D1*
X1373962Y1562407D1*
X1378715Y1559975D1*
X1385900Y1557599D1*
X1397894D1*
X1405023Y1559975D1*
X1409832Y1562407D1*
X1414585Y1567160D1*
X1417017Y1571969D1*
Y1581531D1*
X1414585Y1586284D1*
X1409832Y1591092D1*
X1405023Y1593469D1*
X1378770Y1611340D2*
X1376394D1*
X1371585Y1613716D1*
X1369209Y1616093D1*
X1366832Y1620901D1*
Y1630463D1*
X1369209Y1635216D1*
X1371585Y1637593D1*
X1376394Y1640025D1*
X1381147D1*
X1385955Y1637593D1*
X1393085Y1632840D1*
X1417017Y1608908D1*
Y1642401D1*
X1628715Y1243469D2*
X1623962Y1241092D1*
X1619154Y1236284D1*
X1616777Y1231531D1*
Y1221969D1*
X1619154Y1217161D1*
X1623962Y1212407D1*
X1628715Y1209975D1*
X1635900Y1207599D1*
X1647894D1*
X1655023Y1209975D1*
X1659832Y1212407D1*
X1664585Y1217160D1*
X1667017Y1221969D1*
Y1231531D1*
X1664585Y1236284D1*
X1659832Y1241092D1*
X1655023Y1243469D1*
X1616832Y1287593D2*
Y1263716D1*
X1638332Y1261340D1*
X1635955Y1263716D1*
X1633524Y1270901D1*
Y1278031D1*
X1635955Y1285216D1*
X1640709Y1290025D1*
X1647894Y1292401D1*
X1652647D1*
X1659832Y1290025D1*
X1664640Y1285216D1*
X1667017Y1278031D1*
Y1270901D1*
X1664640Y1263716D1*
X1662208Y1261340D1*
X1657455Y1258908D1*
X1628715Y1594685D2*
X1623962Y1592308D1*
X1619154Y1587500D1*
X1616777Y1582746D1*
Y1573185D1*
X1619154Y1568376D1*
X1623962Y1563623D1*
X1628715Y1561191D1*
X1635900Y1558815D1*
X1647894D1*
X1655023Y1561191D1*
X1659832Y1563623D1*
X1664585Y1568376D1*
X1667017Y1573185D1*
Y1582746D1*
X1664585Y1587500D1*
X1659832Y1592308D1*
X1655023Y1594685D1*
X1623962Y1638809D2*
X1619209Y1636432D1*
X1616832Y1629247D1*
Y1624494D1*
X1619209Y1617309D1*
X1626394Y1612501D1*
X1638332Y1610124D1*
X1650270D1*
X1659832Y1612500D1*
X1664640Y1617309D1*
X1667017Y1624494D1*
Y1626871D1*
X1664640Y1634000D1*
X1659832Y1638809D1*
X1652647Y1641185D1*
X1650270D1*
X1643085Y1638809D1*
X1638332Y1634000D1*
X1635955Y1626871D1*
Y1624494D1*
X1638332Y1617309D1*
X1643085Y1612500D1*
X1650270Y1610124D1*
X733787Y1212593D2*
Y1162353D1*
X750534D1*
X757719Y1164785D1*
X762527Y1169538D1*
X764904Y1174347D1*
X767280Y1181476D1*
Y1193470D1*
X764904Y1200655D1*
X762527Y1205408D1*
X757719Y1210217D1*
X750534Y1212593D1*
X733787D1*
X782720Y1186285D2*
X804275D1*
X811405Y1188661D1*
X813836Y1191093D1*
X816213Y1195846D1*
Y1203032D1*
X813836Y1207785D1*
X811405Y1210217D1*
X804275Y1212593D1*
X782720D1*
Y1162353D1*
X2823924Y2081654D2*
X2792863D1*
Y2031414D1*
X2823924D1*
X2792863Y2057722D2*
X2811986D1*
X2839363Y2055345D2*
X2860918D1*
X2868048Y2057722D1*
X2870480Y2060154D1*
X2872857Y2064907D1*
Y2072092D1*
X2870480Y2076845D1*
X2868048Y2079277D1*
X2860918Y2081654D1*
X2839363D1*
Y2031414D1*
X801842Y3648223D2*
X770725D1*
Y3597983D1*
Y3624291D2*
X789849D1*
X817281Y3638606D2*
X822090Y3641038D1*
X829275Y3648168D1*
Y3597983D1*
X748808Y2613774D2*
Y2563534D1*
X782301Y2613774D2*
Y2563534D1*
X748808Y2589843D2*
X782301D1*
X797741Y2613774D2*
Y2563534D1*
X826425D1*
X841865Y2613774D2*
Y2563534D1*
X875358Y2613774D2*
X841865Y2580281D1*
X853803Y2592274D2*
X875358Y2563534D1*
X890797Y2587466D2*
X912352D1*
X919482Y2589843D1*
X921914Y2592274D1*
X924291Y2597028D1*
Y2604213D1*
X921914Y2608966D1*
X919482Y2611398D1*
X912352Y2613774D1*
X890797D1*
Y2563534D1*
X977976D2*
Y2613774D1*
X958853Y2563534D1*
X939730Y2613774D1*
Y2563534D1*
X1007786Y2613719D2*
X1000601Y2611342D1*
X995792Y2604157D1*
X993416Y2592219D1*
Y2585034D1*
X995792Y2573096D1*
X1000601Y2565911D1*
X1007786Y2563534D1*
X1012539D1*
X1019724Y2565911D1*
X1024477Y2573096D1*
X1026909Y2585034D1*
Y2592219D1*
X1024477Y2604157D1*
X1019724Y2611342D1*
X1012539Y2613719D1*
X1007786D1*
X1024477Y2604157D2*
X995792Y2573096D1*
X1042348Y2604157D2*
X1047157Y2606589D1*
X1054342Y2613719D1*
Y2563534D1*
X1387500Y873223D2*
Y834977D1*
X1385123Y827792D1*
X1382691Y825415D1*
X1377938Y822983D1*
X1373129D1*
X1368376Y825415D1*
X1366000Y827792D1*
X1363568Y834977D1*
Y839730D1*
X1405371Y861230D2*
Y863606D1*
X1407747Y868415D1*
X1410124Y870791D1*
X1414932Y873168D1*
X1424494D1*
X1429247Y870791D1*
X1431624Y868415D1*
X1434056Y863606D1*
Y858853D1*
X1431624Y854045D1*
X1426871Y846915D1*
X1402939Y822983D1*
X1436432D1*
X1457599Y3599291D2*
X1479099D1*
X1486284Y3601723D1*
X1488715Y3604100D1*
X1491092Y3608853D1*
Y3613661D1*
X1488715Y3618415D1*
X1486284Y3620846D1*
X1479099Y3623223D1*
X1457599D1*
Y3572983D1*
X1474345Y3599291D2*
X1491092Y3572983D1*
X1530463D2*
Y3623168D1*
X1506531Y3589730D1*
X1542401D1*
X2363709Y808787D2*
Y830287D1*
X2361277Y837472D1*
X2358900Y839904D1*
X2354147Y842280D1*
X2349339D1*
X2344585Y839904D1*
X2342154Y837472D1*
X2339777Y830287D1*
Y808787D1*
X2390017D1*
X2363709Y825534D2*
X2390017Y842280D1*
X2339832Y886405D2*
Y862528D1*
X2361332Y860152D1*
X2358956Y862528D1*
X2356524Y869713D1*
Y876843D1*
X2358956Y884028D1*
X2363709Y888836D1*
X2370894Y891213D1*
X2375647D1*
X2382832Y888836D1*
X2387640Y884028D1*
X2390017Y876843D1*
Y869713D1*
X2387640Y862528D1*
X2385209Y860152D1*
X2380455Y857720D1*
X1560003Y1036291D2*
X1581503D1*
X1588688Y1038723D1*
X1591120Y1041100D1*
X1593496Y1045853D1*
Y1050661D1*
X1591120Y1055415D1*
X1588688Y1057846D1*
X1581503Y1060223D1*
X1560003D1*
Y1009983D1*
X1576750Y1036291D2*
X1593496Y1009983D1*
X1637620Y1053038D2*
X1635244Y1057791D1*
X1628059Y1060168D1*
X1623306D1*
X1616121Y1057791D1*
X1611312Y1050606D1*
X1608936Y1038668D1*
Y1026730D1*
X1611312Y1017168D1*
X1616121Y1012360D1*
X1623306Y1009983D1*
X1625682D1*
X1632812Y1012360D1*
X1637620Y1017168D1*
X1639997Y1024353D1*
Y1026730D1*
X1637620Y1033915D1*
X1632812Y1038668D1*
X1625682Y1041045D1*
X1623306D1*
X1616121Y1038668D1*
X1611312Y1033915D1*
X1608936Y1026730D1*
X1058787Y1036291D2*
X1080287D1*
X1087472Y1038723D1*
X1089904Y1041100D1*
X1092280Y1045853D1*
Y1050661D1*
X1089904Y1055415D1*
X1087472Y1057846D1*
X1080287Y1060223D1*
X1058787D1*
Y1009983D1*
X1075534Y1036291D2*
X1092280Y1009983D1*
X1117281D2*
X1141213Y1060168D1*
X1107720D1*
X2598615Y1287991D2*
X2620115D1*
X2627300Y1290423D1*
X2629732Y1292799D1*
X2632109Y1297552D1*
Y1302361D1*
X2629732Y1307114D1*
X2627300Y1309546D1*
X2620115Y1311923D1*
X2598615D1*
Y1261683D1*
X2615362Y1287991D2*
X2632109Y1261683D1*
X2659486Y1311867D2*
X2652356Y1309491D1*
X2649924Y1304738D1*
Y1299929D1*
X2652356Y1295176D1*
X2657109Y1292744D1*
X2666671Y1290367D1*
X2673856Y1287991D1*
X2678609Y1283182D1*
X2680986Y1278429D1*
Y1271244D1*
X2678609Y1266491D1*
X2676233Y1264059D1*
X2669048Y1261683D1*
X2659486D1*
X2652356Y1264059D1*
X2649924Y1266491D1*
X2647548Y1271244D1*
Y1278429D1*
X2649924Y1283182D1*
X2654733Y1287991D1*
X2661863Y1290367D1*
X2671424Y1292744D1*
X2676233Y1295176D1*
X2678609Y1299929D1*
Y1304738D1*
X2676233Y1309491D1*
X2669048Y1311867D1*
X2659486D1*
X2409975Y3899291D2*
X2431475D1*
X2438660Y3901723D1*
X2441092Y3904100D1*
X2443469Y3908853D1*
Y3913661D1*
X2441092Y3918415D1*
X2438660Y3920846D1*
X2431475Y3923223D1*
X2409975D1*
Y3872983D1*
X2426722Y3899291D2*
X2443469Y3872983D1*
X2490025Y3906476D2*
X2487593Y3899291D1*
X2482840Y3894483D1*
X2475655Y3892106D1*
X2473278D1*
X2466093Y3894483D1*
X2461340Y3899291D1*
X2458908Y3906476D1*
Y3908853D1*
X2461340Y3916038D1*
X2466093Y3920791D1*
X2473278Y3923168D1*
X2475655D1*
X2482840Y3920791D1*
X2487593Y3916038D1*
X2490025Y3906476D1*
Y3894483D1*
X2487593Y3882545D1*
X2482840Y3875360D1*
X2475655Y3872983D1*
X2470901D1*
X2463716Y3875360D1*
X2461340Y3880168D1*
X1950709Y3595071D2*
Y3616571D1*
X1948277Y3623756D1*
X1945900Y3626188D1*
X1941147Y3628564D1*
X1936339D1*
X1931585Y3626188D1*
X1929154Y3623756D1*
X1926777Y3616571D1*
Y3595071D1*
X1977017D1*
X1950709Y3611817D2*
X1977017Y3628564D1*
X1936394Y3644003D2*
X1933962Y3648812D1*
X1926832Y3655997D1*
X1977017D1*
X1926832Y3685806D2*
X1929209Y3678621D1*
X1936394Y3673813D1*
X1948332Y3671436D1*
X1955517D1*
X1967455Y3673813D1*
X1974640Y3678621D1*
X1977017Y3685806D1*
Y3690559D1*
X1974640Y3697744D1*
X1967455Y3702497D1*
X1955517Y3704929D1*
X1948332D1*
X1936394Y3702497D1*
X1929209Y3697744D1*
X1926832Y3690559D1*
Y3685806D1*
X1936394Y3702497D2*
X1967455Y3673813D1*
X1413709Y1205821D2*
Y1227321D1*
X1411277Y1234506D1*
X1408900Y1236937D1*
X1404147Y1239314D1*
X1399339D1*
X1394585Y1236937D1*
X1392154Y1234506D1*
X1389777Y1227321D1*
Y1205821D1*
X1440017D1*
X1413709Y1222567D2*
X1440017Y1239314D1*
X1399394Y1254753D2*
X1396962Y1259562D1*
X1389832Y1266747D1*
X1440017D1*
X1399394Y1282186D2*
X1396962Y1286994D1*
X1389832Y1294179D1*
X1440017D1*
X1773748Y2802946D2*
Y2767076D1*
X1776124Y2759891D1*
X1780933Y2755138D1*
X1788118Y2752706D1*
X1792871D1*
X1800056Y2755138D1*
X1804864Y2759891D1*
X1807241Y2767076D1*
Y2802946D1*
X1825112Y2790953D2*
Y2793329D1*
X1827489Y2798138D1*
X1829865Y2800514D1*
X1834674Y2802891D1*
X1844235D1*
X1848989Y2800514D1*
X1851365Y2798138D1*
X1853797Y2793329D1*
Y2788576D1*
X1851365Y2783768D1*
X1846612Y2776638D1*
X1822680Y2752706D1*
X1856174D1*
X2110027Y2164824D2*
Y2128954D1*
X2112404Y2121769D1*
X2117212Y2117016D1*
X2124397Y2114584D1*
X2129150D1*
X2136335Y2117016D1*
X2141144Y2121769D1*
X2143521Y2128954D1*
Y2164824D1*
X2163768Y2164769D2*
X2190021D1*
X2175706Y2145646D1*
X2182891D1*
X2187645Y2143269D1*
X2190021Y2140892D1*
X2192453Y2133707D1*
Y2128954D1*
X2190021Y2121769D1*
X2185268Y2116961D1*
X2178083Y2114584D1*
X2170898D1*
X2163768Y2116961D1*
X2161392Y2119393D1*
X2158960Y2124146D1*
X1807599Y3186235D2*
Y3150365D1*
X1809975Y3143180D1*
X1814784Y3138427D1*
X1821969Y3135995D1*
X1826722D1*
X1833907Y3138427D1*
X1838715Y3143180D1*
X1841092Y3150365D1*
Y3186235D1*
X1880463Y3135995D2*
Y3186180D1*
X1856531Y3152742D1*
X1892401D1*
X690317Y3152751D2*
X709441Y3102511D1*
X728564Y3152751D1*
X758373D2*
X753565Y3150374D1*
X748812Y3145566D1*
X746380Y3140812D1*
X744003Y3133627D1*
Y3121634D1*
X746380Y3114504D1*
X748812Y3109696D1*
X753565Y3104942D1*
X758373Y3102511D1*
X767935D1*
X772688Y3104942D1*
X777497Y3109696D1*
X779873Y3114504D1*
X782250Y3121634D1*
Y3133627D1*
X779873Y3140812D1*
X777497Y3145566D1*
X772688Y3150374D1*
X767935Y3152751D1*
X758373D1*
X797689Y3143134D2*
X802497Y3145566D1*
X809683Y3152695D1*
Y3102511D1*
X1229568Y3352751D2*
X1248691Y3302511D1*
X1267814Y3352751D1*
X1297623D2*
X1292815Y3350374D1*
X1288062Y3345566D1*
X1285630Y3340812D1*
X1283253Y3333627D1*
Y3321634D1*
X1285630Y3314504D1*
X1288062Y3309696D1*
X1292815Y3304942D1*
X1297623Y3302511D1*
X1307185D1*
X1311938Y3304942D1*
X1316747Y3309696D1*
X1319123Y3314504D1*
X1321500Y3321634D1*
Y3333627D1*
X1319123Y3340812D1*
X1316747Y3345566D1*
X1311938Y3350374D1*
X1307185Y3352751D1*
X1297623D1*
X1339371Y3340757D2*
Y3343134D1*
X1341748Y3347942D1*
X1344124Y3350319D1*
X1348933Y3352695D1*
X1358494D1*
X1363247Y3350319D1*
X1365624Y3347942D1*
X1368056Y3343134D1*
Y3338381D1*
X1365624Y3333572D1*
X1360871Y3326442D1*
X1336939Y3302511D1*
X1370432D1*
X2456410Y1942908D2*
X2475534Y1918976D1*
Y1892668D1*
X2494657Y1942908D2*
X2475534Y1918976D1*
X2512528Y1930915D2*
Y1933291D1*
X2514905Y1938100D1*
X2517281Y1940476D1*
X2522090Y1942853D1*
X2531651D1*
X2536405Y1940476D1*
X2538781Y1938100D1*
X2541213Y1933291D1*
Y1928538D1*
X2538781Y1923730D1*
X2534028Y1916600D1*
X2510096Y1892668D1*
X2543590D1*
X2434348Y3678819D2*
X2455848D1*
X2463033Y3681251D1*
X2465465Y3683627D1*
X2467842Y3688381D1*
Y3693189D1*
X2465465Y3697942D1*
X2463033Y3700374D1*
X2455848Y3702751D1*
X2434348D1*
Y3652511D1*
X2451095Y3678819D2*
X2467842Y3652511D1*
X2514342Y3702751D2*
X2483281D1*
Y3652511D1*
X2514342D1*
X2483281Y3678819D2*
X2502404D1*
X2565652Y3690812D2*
X2563275Y3695566D1*
X2558467Y3700374D1*
X2553713Y3702751D1*
X2544152D1*
X2539343Y3700374D1*
X2534590Y3695566D1*
X2532158Y3690812D1*
X2529782Y3683627D1*
Y3671634D1*
X2532158Y3664504D1*
X2534590Y3659696D1*
X2539343Y3654942D1*
X2544152Y3652511D1*
X2553713D1*
X2558467Y3654942D1*
X2563275Y3659696D1*
X2565652Y3664504D1*
X1807550Y4079583D2*
D81*
Y4039458D1*
Y4025132D2*
X1804632Y4022213D1*
X1807550Y4019362D1*
X1810402Y4022213D1*
X1807550Y4025132D1*
X1887250Y4079650D2*
Y4019362D1*
X1927442Y4079650D2*
Y4019362D1*
X1887250Y4050932D2*
X1927442D1*
X1945969Y4079650D2*
X1948821Y4076798D1*
X1951739Y4079650D1*
X1948821Y4082568D1*
X1945969Y4079650D1*
X1948821Y4059554D2*
Y4019362D1*
X2004688Y4056702D2*
Y4010740D1*
X2001836Y4002184D1*
X1998985Y3999266D1*
X1993214Y3996414D1*
X1984592D1*
X1978889Y3999266D1*
X2004688Y4048080D2*
X1998985Y4053783D1*
X1993214Y4056702D1*
X1984592D1*
X1978889Y4053783D1*
X1973118Y4048080D1*
X1970267Y4039458D1*
Y4033687D1*
X1973118Y4025132D1*
X1978889Y4019362D1*
X1984592Y4016510D1*
X1993214D1*
X1998985Y4019362D1*
X2004688Y4025132D1*
X2023215Y4079650D2*
Y4019362D1*
Y4048080D2*
X2031838Y4056702D1*
X2037608Y4059554D1*
X2046230D1*
X2051934Y4056702D1*
X2054785Y4048080D1*
Y4019362D1*
X2131634Y4079650D2*
X2154582Y4019362D1*
X2177530Y4079650D1*
X2210382Y4059554D2*
X2204679Y4056702D1*
X2198909Y4050932D1*
X2196057Y4042309D1*
Y4036606D1*
X2198909Y4027984D1*
X2204679Y4022280D1*
X2210382Y4019362D1*
X2219005D1*
X2224775Y4022280D1*
X2230478Y4027984D1*
X2233397Y4036606D1*
Y4042309D1*
X2230478Y4050932D1*
X2224775Y4056702D1*
X2219005Y4059554D1*
X2210382D1*
X2251924Y4079650D2*
Y4019362D1*
X2279073Y4079650D2*
Y4030836D1*
X2281925Y4022280D1*
X2287695Y4019362D1*
X2293399D1*
X2270451Y4059554D2*
X2290547D1*
X2346348D2*
Y4019362D1*
Y4050932D2*
X2340644Y4056702D1*
X2334874Y4059554D1*
X2326318D1*
X2320548Y4056702D1*
X2314844Y4050932D1*
X2311926Y4042309D1*
Y4036606D1*
X2314844Y4027984D1*
X2320548Y4022280D1*
X2326318Y4019362D1*
X2334874D1*
X2340644Y4022280D1*
X2346348Y4027984D1*
X2399297Y4056702D2*
Y4010740D1*
X2396445Y4002184D1*
X2393593Y3999266D1*
X2387823Y3996414D1*
X2379201D1*
X2373497Y3999266D1*
X2399297Y4048080D2*
X2393593Y4053783D1*
X2387823Y4056702D1*
X2379201D1*
X2373497Y4053783D1*
X2367727Y4048080D1*
X2364875Y4039458D1*
Y4033687D1*
X2367727Y4025132D1*
X2373497Y4019362D1*
X2379201Y4016510D1*
X2387823D1*
X2393593Y4019362D1*
X2399297Y4025132D1*
X2417824Y4042309D2*
X2452246D1*
Y4048080D1*
X2449394Y4053850D1*
X2446542Y4056702D1*
X2440772Y4059554D1*
X2432150D1*
X2426446Y4056702D1*
X2420676Y4050932D1*
X2417824Y4042309D1*
Y4036606D1*
X2420676Y4027984D1*
X2426446Y4022280D1*
X2432150Y4019362D1*
X2440772D1*
X2446542Y4022280D1*
X2452246Y4027984D1*
X2532012Y4079583D2*
Y4039458D1*
Y4025132D2*
X2529094Y4022213D1*
X2532012Y4019362D1*
X2534864Y4022213D1*
X2532012Y4025132D1*
X604632Y548080D2*
X630498D1*
X639054Y550932D1*
X641972Y553850D1*
X644824Y559554D1*
Y568176D1*
X641972Y573879D1*
X639054Y576798D1*
X630498Y579650D1*
X604632D1*
Y519362D1*
X709313D2*
X686299Y579650D1*
X663351Y519362D1*
X671973Y539458D2*
X700691D1*
X768032Y571028D2*
X762328Y576798D1*
X753706Y579650D1*
X742232D1*
X733610Y576798D1*
X727840Y571028D1*
Y565324D1*
X730758Y559554D1*
X733610Y556702D1*
X739314Y553850D1*
X756558Y548080D1*
X762328Y545228D1*
X765180Y542309D1*
X768032Y536606D1*
Y527984D1*
X762328Y522280D1*
X753706Y519362D1*
X742232D1*
X733610Y522280D1*
X727840Y527984D1*
X786559Y579650D2*
Y536606D1*
X789411Y527984D1*
X795181Y522280D1*
X803803Y519362D1*
X809507D1*
X818129Y522280D1*
X823899Y527984D1*
X826751Y536606D1*
Y579650D1*
X903599D2*
X917992Y519362D1*
X932318Y579650D1*
X946643Y519362D1*
X961036Y579650D1*
X979563D2*
Y519362D1*
X1013985D1*
X1090833Y579650D2*
X1113781Y519362D1*
X1136729Y579650D1*
X1158108Y525132D2*
X1155256Y522213D1*
X1158108Y519362D1*
X1161026Y522213D1*
X1158108Y525132D1*
X1196797Y579583D2*
X1188175Y576731D1*
X1182405Y568109D1*
X1179553Y553783D1*
Y545161D1*
X1182405Y530836D1*
X1188175Y522213D1*
X1196797Y519362D1*
X1202501D1*
X1211123Y522213D1*
X1216827Y530836D1*
X1219745Y545161D1*
Y553783D1*
X1216827Y568109D1*
X1211123Y576731D1*
X1202501Y579583D1*
X1196797D1*
X1216827Y568109D2*
X1182405Y530836D1*
X1238272Y568109D2*
X1244042Y571028D1*
X1252664Y579583D1*
Y519362D1*
M02*
